<svg width="26" height="22" viewBox="0 0 26 22" fill="none" xmlns="http://www.w3.org/2000/svg">
<g clip-path="url(#clip0_7002_141)">
<path d="M-1894 23.989C-1894 23.9951 -1894 24 -1893.99 24C-1893.98 24 -1893.98 23.9953 -1893.98 23.9894C-1893.45 10.6509 -1882.47 0 -1869 0H-1610.52C-1605.45 0 -1601.3 -3.83269 -1599.81 -8.67389C-1593.54 -29.1276 -1574.51 -44 -1552 -44H-525C-502.492 -44 -483.459 -29.1276 -477.189 -8.67388C-475.705 -3.83268 -471.546 0 -466.482 0H1C14.4686 0 25.4478 10.6509 25.9781 23.9894C25.9783 23.9953 25.9832 24 25.989 24C25.9951 24 26 23.9951 26 23.989V-61C26 -66.5228 21.5228 -71 16 -71H-1884C-1889.52 -71 -1894 -66.5228 -1894 -61V23.989Z" fill="#7027E2"/>
</g>
<defs>
<clipPath id="clip0_7002_141">
<rect width="26" height="22" fill="white" transform="matrix(-1 0 0 1 26 0)"/>
</clipPath>
</defs>
</svg>
