<svg width="1153" height="95" viewBox="0 0 1153 95" fill="none" xmlns="http://www.w3.org/2000/svg">
<g clip-path="url(#clip0_7002_141)">
<path d="M1432 94.989C1432 94.9951 1432 95 1431.99 95V95C1431.98 95 1431.98 94.9953 1431.98 94.9894C1431.45 81.6509 1420.47 71 1407 71H1148.52C1143.45 71 1139.3 67.1673 1137.81 62.3261C1131.54 41.8724 1112.51 27 1090 27H63C40.492 27 21.4585 41.8724 15.1889 62.3261C13.705 67.1673 9.54564 71 4.48211 71H-463C-476.469 71 -487.448 81.6509 -487.978 94.9894C-487.978 94.9953 -487.983 95 -487.989 95V95C-487.995 95 -488 94.9951 -488 94.989V10C-488 4.47715 -483.523 0 -478 0H1422C1427.52 0 1432 4.47715 1432 10V94.989Z" fill="#7027E2"/>
</g>
<defs>
<clipPath id="clip0_7002_141">
<rect width="1153" height="95" fill="white"/>
</clipPath>
</defs>
</svg>
